<!--?xml version="1.0" encoding="utf-8"?-->
<!-- Generator: Adobe Illustrator 18.1.1, SVG Export Plug-In . SVG Version: 6.00 Build 0)  -->

<svg version="1.1" id="_x31_0" xmlns="http://www.w3.org/2000/svg" xmlns:xlink="http://www.w3.org/1999/xlink" x="0px" y="0px" viewBox="0 0 512 512" style="width: 16px; height: 16px; opacity: 1;" xml:space="preserve">
<style type="text/css">
	.st0{fill:#374149;}
</style>
<g>
	<path class="st0" d="M387.918,56.004c-24.011,0-46.699,6.801-65.957,18.863C302.699,62.805,280.008,56.004,256,56.004
		c-24.012,0-46.699,6.801-65.961,18.863c-19.262-12.062-41.95-18.863-65.957-18.863C55.664,56.004,0,111.668,0,180.086
		c0,51.199,31.172,95.258,75.535,114.187l17.848,115.262l7.195,46.461h47.015h216.813h47.015l7.195-46.461l17.852-115.262
		C480.828,275.344,512,231.286,512,180.086C512,111.668,456.336,56.004,387.918,56.004z M189.89,159.031
		c0.02-0.062,0.047-0.121,0.066-0.183c0.027,0.078,0.059,0.152,0.086,0.234c8.894-27.958,35.05-48.219,65.957-48.219
		c26.953,0,50.289,15.414,61.718,37.902c1.614,3.266,2.989,6.691,4.086,10.266c0.023-0.062,0.05-0.121,0.07-0.183
		c0.023,0.078,0.058,0.152,0.086,0.234c8.894-27.958,35.051-48.219,65.957-48.219c38.231,0,69.227,30.992,69.227,69.223
		c0,38.23-30.996,69.222-69.227,69.222l-23.511,151.832h-46.547l-5.461-117.219h-22.672l-5.461,117.219h-56.531l-5.461-117.219
		h-22.668l-5.461,117.219h-46.551l-23.511-151.832c-38.234,0-69.223-30.992-69.223-69.222c0-38.231,30.989-69.223,69.223-69.223
		c26.953,0,50.285,15.414,61.718,37.902C187.414,152.031,188.789,155.457,189.89,159.031z"></path>
</g>
</svg>
